<svg width="436" height="960" viewBox="0 0 436 960" fill="none" xmlns="http://www.w3.org/2000/svg">
<path d="M203.601 1.00011C203.146 4.45785 200.322 15.8137 197.174 28.1417C193.975 40.6717 189.145 52.2126 184.487 63.8935C179.931 75.3202 175.01 86.4787 171.328 97.8433C169.347 103.959 168.329 110.2 169.328 115.515C171.607 127.645 192.117 127.481 205.054 132.298C218.316 137.235 225.864 148.214 232.075 158.098C238.644 168.553 230.163 184.07 224.178 194.631C218.494 204.661 209.946 212.541 196.666 220.91C186.02 227.618 177.161 235.667 168.346 246.62C159.159 258.036 150.059 270.215 139.358 287.769C131.385 300.849 123.648 315.117 115.776 333.549C109.916 347.269 110.73 363.276 112.999 377.865C114.999 390.719 122.541 400.52 129.494 414.859C136.238 428.767 145.354 441.012 154.588 450.442C164.898 460.971 178.448 462.55 192.275 462.578C205.179 462.605 215.998 453.154 226.57 446.102C232.673 442.031 236.731 434.274 240.042 426.802C242.757 420.673 241.747 414.267 240.001 408.578C236.282 396.463 220.164 391.75 206.977 385.128C190.404 376.805 176.455 374.88 161.505 373.567C136.402 371.364 114.48 383.951 97.524 398.744C80.1249 413.924 78.514 438.81 76.9843 462.798C75.8424 480.703 93.3353 493.628 102.349 501.71C113.45 511.664 134.069 515.987 168.973 520.929C211.258 526.915 233.291 517.624 253.626 513.862C279.568 509.061 292.082 500.458 305.378 492.347C321.141 482.732 330.961 468.101 339.255 448.597C345.771 433.274 341.473 412.412 336.877 397.301C332.848 384.054 323.656 368.016 310.15 348.108C298.579 331.053 284.005 319.822 272.483 311.925C256.468 300.948 235.003 291.156 202.759 278.204C181.122 269.512 169.082 267.871 153.229 266.179C118.869 262.509 102.183 269.262 76.3184 278.45C52.5011 286.911 43.5341 299.222 31.2559 317.24C21.8861 330.99 15.4723 347.632 8.25311 369.211C4.52947 380.341 4.09489 393.537 4.19799 405.416C4.26545 413.19 8.58642 418.153 13.3228 422.336C23.3822 431.22 51.9163 430.248 70.2492 428.305C86.1258 426.622 98.9578 416.761 110.661 409.546C128.517 398.538 139.098 384.946 151.41 373.611C175.74 351.211 191.714 328.499 200.643 318.709C212.088 306.162 230.328 285.872 243.058 274.231C256.252 262.166 278.912 255.905 300.606 253.374C331.375 249.785 345.518 259.589 358.62 267.278C376.347 277.682 392.578 298.002 402.529 311.303C415.455 328.579 430.571 368.067 434.081 389.071C437.228 407.899 431.708 430.227 426.373 447.664C422.168 461.406 411.396 475.424 399.718 483.632C388.532 491.495 371.898 493.853 354.198 496.258C327.332 499.909 297.887 488.823 281.239 482.721C267.889 477.828 255.339 466.271 241.591 453.707C229.891 443.015 220.545 429.998 207.647 416.316C197.434 405.482 187.157 397.939 175.343 391.754C163.903 385.764 147.752 382.282 130.076 379.862C100.722 375.843 88.1907 383.845 72.616 389.9C46.7149 399.968 22.4867 416.095 11.5363 426.467C2.16032 435.348 1.30589 451.116 1.00513 469.122C0.734321 485.336 11.2407 501.347 18.7594 514.058C26.2846 526.78 38.5951 540.034 54.9562 552.713C67.9131 562.753 86.6438 566.126 105.63 569.904C132.634 575.277 147.283 564.323 162.905 553.085C174.947 544.422 181.552 527.908 185.018 515.461C190.093 497.229 186.295 471.657 183.235 458.41C180.384 446.069 173.634 428.401 166.458 412.581C159.647 397.566 153.716 382.636 147.728 369.752C142.491 358.484 136.586 347.874 130.086 337.508C122.213 324.95 112.205 309.845 105.084 292.733C100.056 280.653 96.2923 267.941 96.824 255.828C97.0897 249.777 103.893 244.234 110.888 238.707C122.265 229.718 173.064 230.822 205.999 232.137C219.055 232.658 244.247 242.597 263.441 252.806C276.99 260.012 285.861 267.395 296.2 274.611C301.282 278.158 305.534 283.164 309.418 288.582C319.181 302.197 311.994 326.226 310.142 340.711C307.925 358.053 300.729 378.778 294.893 390.446C289.289 401.648 279.466 408.973 271.846 417.972C263.891 427.366 256.524 437.997 244.366 452.195C235.7 462.316 224.643 470.511 214.518 480.716C204.366 490.947 197.283 501.094 187.513 508.822C176.623 517.435 161.322 522.922 151.107 532.413C146.623 536.579 144.49 543.888 142.813 551.835C140.143 564.483 154.969 578.334 166.744 587.276C179.078 596.642 200.303 597.845 219.734 600.891C241.632 604.324 260.423 600.864 272.062 597.488C286.496 593.302 297.976 587.365 311.094 578.216C322.49 570.266 331.733 558.309 338.533 548.153C345.9 537.152 349.486 524.627 355.438 510.718C361.518 496.511 363.782 484.552 370.464 464.443C375.466 449.388 379.038 437.482 382.099 425.968C385.23 414.186 388.09 403.126 390.133 391.215C391.167 385.186 391.721 378.197 391.253 371.054C390.442 358.67 374.669 351.927 348.753 336.796C332.852 327.513 316.278 328.287 302.682 331.473C288.681 334.755 283.809 353.006 276.234 370.726C268.787 388.145 260.99 400.28 254.327 415.476C243.472 440.233 235.676 473.213 231.476 505.732C228.902 525.664 232.262 548.554 238.042 564.153C243.905 579.971 251.388 590.823 268.555 619.284C278.879 636.4 288.87 649.054 298.762 662.11C319.233 689.129 320.521 707.923 318.987 724.026C316.295 752.301 298.503 782.828 291.937 792.569C283.719 804.759 262.932 813.541 252.721 825.667C235.27 846.393 224.951 875.364 219.295 896.454C213.966 916.326 218.838 943.126 217 958.5" stroke="black" stroke-opacity="0.7" stroke-width="2" stroke-linecap="round"/>
</svg>
