<svg width="272" height="125" viewBox="0 0 272 125" fill="none" xmlns="http://www.w3.org/2000/svg">
<path d="M145.449 0.039917C145.925 11.957 145.01 20.126 145.449 29.699C145.907 61.1463 143.63 69.2861 142.664 76.1988M142.664 76.1988C114.228 73.4905 99.0507 73.8998 72.5566 76.1988C56.0381 78.3778 24.5984 77.2725 10.1101 76.5956C5.82332 76.3953 2.11984 79.5631 1.81513 83.8437C1.06549 94.3747 0.184541 113.278 2.44924 124.199M142.664 76.1988C172.286 72.7529 188.014 71.4207 205.557 76.1988C226.84 78.3024 249.308 77.4459 260.758 76.7533C265.06 76.493 268.869 79.5863 269.29 83.8764C270.459 95.8075 272.056 118.068 268.449 124.199" stroke="black" stroke-opacity="0.7" stroke-width="2"/>
</svg>
